<svg id="logo" xmlns="http://www.w3.org/2000/svg" viewBox="35 23 260 45">
<g>
	<path class="st0" d="M77.2,40.1c-0.1-0.7-0.2-1.3-0.4-1.8c-0.4-1-1-1.8-2-2.4c-1-0.6-2.1-0.9-3.4-0.9c-2.3,0-4.3,0.8-5.8,2.3
		c-1.5,1.5-2.3,3.9-2.3,7.2c-0.8,0.1-1.4,0.3-1.9,0.4c-1.4,0.4-2.6,0.9-3.7,1.6v-4.1c0-2.5-0.5-4.3-1.4-5.6
		c-0.9-1.2-2.4-1.9-4.5-1.9c-1.5,0-3,0.4-4.4,1.3c-1.3,0.8-2.3,2.1-2.9,3.6c-0.6,1.6-0.9,3.9-0.9,6.9v17.3h-5.6V31h5v4.6
		c1-1.6,2.4-2.9,4.1-3.9c1.7-1,3.7-1.5,5.9-1.5c2.4,0,4.5,0.5,6,1.5c1.5,1,2.7,2.4,3.3,4.3c2.6-3.8,6-5.8,10.2-5.8
		c3.3,0,5.8,0.9,7.6,2.7c1.3,1.4,2.2,3.3,2.5,5.8c0.2,1.4,0.1,2.8,0.1,4.3v7.5c0,5.2,0.1,8.5,0.4,9.8c0.2,1.4,0.7,2.7,1.4,4h-5.8
		c-0.6-1.1-0.9-2.7-1.2-4.5l-0.3,0.1c-2,1.7-4,2.9-5.9,3.6c-1.9,0.7-4,1.1-6.2,1.1c-3.6,0-6.4-0.9-8.4-2.6c-1.9-1.8-2.9-4-2.9-6.8
		c0-1.6,0.4-3.1,1.1-4.4c0.7-1.3,1.7-2.4,2.9-3.2c1.2-0.8,2.5-1.4,4-1.8c1.1-0.3,2.7-0.6,5-0.8c4-0.5,7.1-1,9.2-1.7
		c0.1,0,0.9-0.3,1-0.3V40.1z M77.2,47.3c-2.8,1-6.4,1.7-9.4,2.1c-2.3,0.3-3.9,0.7-4.9,1.1c-1,0.4-1.7,1-2.2,1.8		C60.2,53.2,60,54,60,55c0,1.5,0.6,2.7,1.7,3.7c1.1,1,2.8,1.5,4.9,1.5c2.2,0,4.1-0.5,5.8-1.4c3.1-1.8,4.4-3.8,4.8-7"/>
	<rect x="96.3" y="31" class="st0" width="2.8" height="33.2"/>
	<path class="st1" d="M116.4,43.7l-4.3-11.3H112c0.1,0.9,0.1,1.9,0.1,3.2v8.1h-1.3V31h2.2l4,10.5h0.1l4.1-10.5h2.2v12.7h-1.5v-8.2
		c0-1,0-2,0.1-3.1h-0.1l-4.3,11.2H116.4z M130.6,43.9c-1.4,0-2.5-0.4-3.3-1.3c-0.8-0.9-1.2-2.1-1.2-3.6c0-1.5,0.4-2.8,1.1-3.7
		s1.8-1.3,3.1-1.3c1.2,0,2.1,0.4,2.8,1.2c0.7,0.8,1,1.8,1,3.1v0.9h-6.6c0,1.1,0.3,1.9,0.9,2.5c0.5,0.6,1.3,0.9,2.3,0.9
		c1,0,2-0.2,3-0.6v1.3c-0.5,0.3-1,0.4-1.4,0.5C131.8,43.8,131.3,43.9,130.6,43.9L130.6,43.9z M130.2,35.2c-0.8,0-1.4,0.3-1.8,0.8
		c-0.5,0.5-0.8,1.2-0.8,2.1h5c0-0.9-0.2-1.6-0.6-2.1C131.6,35.5,131,35.2,130.2,35.2L130.2,35.2z M144.9,47h-1.4v-3.3h-6.6V47h-1.4
		v-4.5h0.8c0.8-1,1.4-2.3,1.8-3.7c0.5-1.4,0.7-2.9,0.7-4.6h4.8v8.3h1.4V47z M142.1,42.5v-7.1H140c-0.1,1.3-0.3,2.6-0.7,3.9
		c-0.4,1.3-0.9,2.4-1.6,3.2H142.1z M148.1,34.2v6.1l-0.1,1.6l0,0.5l5.2-8.1h1.8v9.5h-1.3v-5.8l0-1.2l0-1.1l-5.2,8.1h-1.8v-9.5H148.1
		z M163.9,43.7l-0.3-1.4h-0.1c-0.5,0.6-1,1-1.4,1.2c-0.5,0.2-1,0.3-1.8,0.3c-0.9,0-1.7-0.3-2.2-0.8c-0.5-0.5-0.8-1.2-0.8-2.1
		c0-1.9,1.5-3,4.6-3l1.6-0.1v-0.6c0-0.8-0.1-1.3-0.5-1.7c-0.3-0.4-0.8-0.5-1.5-0.5c-0.8,0-1.7,0.3-2.7,0.7l-0.4-1.1
		c0.5-0.3,1-0.5,1.5-0.6c0.5-0.1,1.1-0.2,1.7-0.2c1.2,0,2,0.3,2.5,0.8c0.6,0.5,0.8,1.3,0.8,2.4v6.5H163.9z M160.6,42.7
		c0.9,0,1.6-0.3,2.1-0.8s0.8-1.2,0.8-2.1v-0.9l-1.4,0.1c-1.2,0-2,0.2-2.5,0.5c-0.5,0.3-0.8,0.8-0.8,1.5c0,0.5,0.2,0.9,0.5,1.2
		C159.6,42.6,160.1,42.7,160.6,42.7L160.6,42.7z M180.8,43.7l-1.6-4h-5.1l-1.5,4h-1.5l5-12.8h1.3l5,12.8H180.8z M178.7,38.4l-1.5-4
		c-0.2-0.5-0.4-1.1-0.6-1.8c-0.1,0.6-0.3,1.2-0.6,1.8l-1.5,4H178.7z M190.9,43.7h-1.5v-8.3h-2.8c-0.2,2.1-0.4,3.7-0.6,4.9
		c-0.3,1.2-0.6,2.1-1.1,2.7c-0.5,0.5-1,0.8-1.7,0.8c-0.3,0-0.6,0-0.8-0.1v-1c0.1,0,0.3,0,0.4,0c0.7,0,1.2-0.7,1.6-2.1
		c0.4-1.4,0.7-3.5,0.9-6.4h5.6V43.7z M195.4,38.1h2.9c2.4,0,3.6,0.9,3.6,2.7c0,0.9-0.3,1.7-0.9,2.2s-1.5,0.8-2.8,0.8H194v-9.5h1.4
		V38.1z M195.4,39.4v3.1h2.8c0.8,0,1.3-0.1,1.7-0.4c0.4-0.3,0.6-0.7,0.6-1.2c0-0.5-0.2-0.9-0.5-1.2c-0.4-0.2-1-0.4-1.8-0.4H195.4z
		 M205,43.7h-1.7l2.7-4c-0.7-0.2-1.3-0.5-1.7-0.9c-0.4-0.5-0.6-1-0.6-1.8c0-0.9,0.3-1.5,0.9-2.1c0.6-0.5,1.4-0.8,2.4-0.8h4.3v9.5
		h-1.4v-3.8h-2.4L205,43.7z M205.2,37c0,1.1,0.8,1.7,2.4,1.7h2.3v-3.2h-2.6C205.9,35.4,205.2,36,205.2,37L205.2,37z M215.8,34.2v4
		h5.3v-4h1.4v9.5h-1.4v-4.3h-5.3v4.3h-1.4v-9.5H215.8z M229.5,43.9c-1.4,0-2.4-0.4-3.2-1.3c-0.8-0.8-1.2-2.1-1.2-3.6
		c0-1.6,0.4-2.8,1.2-3.7c0.8-0.9,1.9-1.3,3.3-1.3c0.5,0,0.9,0,1.4,0.1c0.5,0.1,0.8,0.2,1.1,0.3l-0.4,1.2c-0.3-0.1-0.6-0.2-1-0.3
		c-0.4-0.1-0.7-0.1-1-0.1c-1.9,0-2.9,1.2-2.9,3.7c0,1.2,0.2,2.1,0.7,2.7c0.5,0.6,1.2,0.9,2.1,0.9c0.8,0,1.6-0.2,2.4-0.5v1.3
		C231.2,43.7,230.5,43.9,229.5,43.9L229.5,43.9z M115,64.5c-0.6,0-1.2-0.1-1.7-0.3c-0.5-0.3-0.9-0.6-1.3-1.1h-0.1
		c0.1,0.6,0.1,1.1,0.1,1.6v3.9h-1.4V54.8h1.2l0.2,1.3h0.1c0.4-0.5,0.8-0.9,1.3-1.1c0.5-0.3,1-0.4,1.7-0.4c1.3,0,2.2,0.4,2.9,1.3
		c0.7,0.9,1,2.1,1,3.6c0,1.6-0.3,2.8-1,3.6C117.2,64.1,116.2,64.5,115,64.5L115,64.5z M114.8,55.8c-1,0-1.7,0.3-2.1,0.8
		S112,58,112,59.2v0.3c0,1.3,0.2,2.3,0.6,2.9c0.5,0.6,1.2,0.9,2.2,0.9c0.8,0,1.5-0.3,1.9-1c0.5-0.7,0.7-1.6,0.7-2.7
		c0-1.2-0.3-2.1-0.7-2.7C116.3,56.2,115.6,55.8,114.8,55.8L114.8,55.8z M125.5,64.5c-1.4,0-2.5-0.4-3.4-1.3
		c-0.8-0.9-1.2-2.1-1.2-3.6c0-1.5,0.4-2.7,1.1-3.6c0.8-0.9,1.8-1.4,3.1-1.4c1.2,0,2.1,0.4,2.8,1.2c0.7,0.8,1,1.8,1,3.1v0.9h-6.6
		c0,1.1,0.3,2,0.8,2.6c0.5,0.6,1.3,0.9,2.3,0.9c1,0,2.1-0.2,3.1-0.6v1.3c-0.5,0.2-1,0.4-1.4,0.5C126.7,64.4,126.1,64.5,125.5,64.5
		L125.5,64.5z M125.1,55.8c-0.8,0-1.4,0.3-1.8,0.8c-0.4,0.5-0.7,1.2-0.8,2.1h5c0-0.9-0.2-1.6-0.6-2.1
		C126.4,56.1,125.8,55.8,125.1,55.8L125.1,55.8z M137,54.8h1.6l-4.1,4.6l4.5,4.9h-1.7l-4.4-4.8v4.8h-1.4v-9.5h1.4v4.6L137,54.8z
		 M147.8,64.3h-1.5V56h-2.8c-0.1,2.1-0.4,3.7-0.6,4.9c-0.3,1.2-0.6,2.1-1.1,2.6c-0.5,0.6-1,0.9-1.7,0.9c-0.3,0-0.6,0-0.8-0.1v-1.1
		c0.1,0,0.3,0.1,0.4,0.1c0.7,0,1.2-0.7,1.6-2.1c0.4-1.4,0.7-3.5,0.9-6.4h5.6V64.3z M156.7,64.3l-0.3-1.3h-0.1
		c-0.5,0.6-0.9,1-1.4,1.2c-0.5,0.2-1.1,0.3-1.8,0.3c-1,0-1.7-0.2-2.2-0.7c-0.5-0.5-0.8-1.2-0.8-2.1c0-1.9,1.5-2.9,4.6-3l1.6,0V58
		c0-0.7-0.2-1.3-0.5-1.6c-0.3-0.4-0.8-0.5-1.5-0.5c-0.8,0-1.7,0.3-2.7,0.7l-0.5-1.1c0.5-0.3,1-0.4,1.5-0.6c0.6-0.1,1.1-0.2,1.7-0.2
		c1.1,0,2,0.3,2.5,0.8c0.5,0.5,0.8,1.3,0.8,2.4v6.5H156.7z M153.4,63.3c0.9,0,1.6-0.3,2.1-0.7c0.5-0.5,0.8-1.2,0.8-2.1v-0.8l-1.4,0
		c-1.2,0-2,0.2-2.5,0.5s-0.8,0.8-0.8,1.5c0,0.5,0.1,0.9,0.5,1.2C152.4,63.2,152.9,63.3,153.4,63.3L153.4,63.3z M165.7,62.9l0.3-0.8
		l0.4-1l2.6-6.3h1.8v9.5h-1.3v-7.9l-0.1,0.5l-0.5,1.3l-2.5,6h-1.2l-2.4-6c-0.3-0.8-0.5-1.4-0.6-1.8v7.9h-1.3v-9.5h1.8l2.5,6
		C165.2,61.5,165.5,62.2,165.7,62.9L165.7,62.9z M175.2,54.8v4h5.3v-4h1.4v9.5h-1.4V60h-5.3v4.3h-1.4v-9.5H175.2z M193.3,59.5
		c0,1.5-0.4,2.8-1.2,3.6c-0.8,0.9-1.9,1.3-3.2,1.3c-0.9,0-1.6-0.2-2.3-0.6c-0.6-0.4-1.2-1-1.5-1.7c-0.4-0.8-0.5-1.6-0.5-2.6
		c0-1.5,0.4-2.8,1.2-3.6c0.8-0.9,1.8-1.3,3.2-1.3c1.3,0,2.4,0.4,3.2,1.3C192.9,56.8,193.3,58,193.3,59.5L193.3,59.5z M186,59.5
		c0,1.2,0.3,2.2,0.7,2.8c0.5,0.6,1.2,1,2.2,1c0.9,0,1.7-0.3,2.2-1c0.5-0.6,0.7-1.5,0.7-2.8c0-1.2-0.3-2.1-0.7-2.8
		c-0.5-0.6-1.2-0.9-2.2-0.9c-0.9,0-1.7,0.3-2.1,0.9C186.3,57.4,186,58.3,186,59.5L186,59.5z M199.8,64.5c-1.4,0-2.5-0.4-3.3-1.3
		c-0.8-0.9-1.2-2.1-1.2-3.6c0-1.5,0.4-2.7,1.1-3.6c0.8-0.9,1.8-1.4,3.1-1.4c1.2,0,2.1,0.4,2.8,1.2c0.7,0.8,1,1.8,1,3.1v0.9h-6.6
		c0,1.1,0.3,2,0.9,2.6c0.5,0.6,1.3,0.9,2.3,0.9c1,0,2-0.2,3-0.6v1.3c-0.5,0.2-1,0.4-1.4,0.5C201,64.4,200.5,64.5,199.8,64.5
		L199.8,64.5z M199.4,55.8c-0.8,0-1.4,0.3-1.8,0.8c-0.5,0.5-0.7,1.2-0.8,2.1h5c0-0.9-0.2-1.6-0.6-2.1
		C200.8,56.1,200.2,55.8,199.4,55.8L199.4,55.8z M216.3,64.3L216,63h0c-0.5,0.6-1,1-1.4,1.2c-0.5,0.2-1,0.3-1.8,0.3
		c-0.9,0-1.7-0.2-2.2-0.7c-0.5-0.5-0.8-1.2-0.8-2.1c0-1.9,1.5-2.9,4.6-3l1.6,0V58c0-0.7-0.1-1.3-0.5-1.6c-0.3-0.4-0.9-0.5-1.5-0.5
		c-0.8,0-1.7,0.3-2.7,0.7l-0.4-1.1c0.5-0.3,1-0.4,1.5-0.6c0.5-0.1,1.1-0.2,1.7-0.2c1.2,0,2,0.3,2.5,0.8c0.6,0.5,0.8,1.3,0.8,2.4v6.5
		H216.3z M213,63.3c0.9,0,1.6-0.3,2.1-0.7c0.5-0.5,0.8-1.2,0.8-2.1v-0.8l-1.4,0c-1.2,0-2,0.2-2.5,0.5c-0.5,0.3-0.8,0.8-0.8,1.5
		c0,0.5,0.1,0.9,0.5,1.2C212,63.2,212.4,63.3,213,63.3L213,63.3z M226.1,56h-4.3v8.3h-1.4v-9.5h5.7V56z M231.8,64.5
		c-1.4,0-2.5-0.4-3.4-1.3c-0.8-0.9-1.2-2.1-1.2-3.6c0-1.5,0.4-2.7,1.1-3.6c0.8-0.9,1.8-1.4,3.1-1.4c1.2,0,2.1,0.4,2.8,1.2
		c0.7,0.8,1,1.8,1,3.1v0.9h-6.6c0,1.1,0.3,2,0.8,2.6c0.5,0.6,1.3,0.9,2.3,0.9c1,0,2.1-0.2,3.1-0.6v1.3c-0.5,0.2-1,0.4-1.4,0.5
		C233,64.4,232.4,64.5,231.8,64.5L231.8,64.5z M231.4,55.8c-0.8,0-1.4,0.3-1.8,0.8c-0.4,0.5-0.7,1.2-0.8,2.1h5
		c0-0.9-0.2-1.6-0.6-2.1C232.7,56.1,232.1,55.8,231.4,55.8L231.4,55.8z M239.2,54.8v4h5.4v-4h1.4v9.5h-1.4V60h-5.4v4.3h-1.4v-9.5
		H239.2z M255.5,56h-3.1v8.3h-1.4V56h-3.1v-1.2h7.6V56z M261,64.5c-1.4,0-2.4-0.4-3.2-1.3c-0.8-0.9-1.2-2.1-1.2-3.6
		c0-1.6,0.4-2.8,1.2-3.7c0.8-0.9,1.9-1.3,3.3-1.3c0.5,0,0.9,0.1,1.4,0.1c0.5,0.1,0.8,0.2,1.1,0.4l-0.4,1.2c-0.3-0.1-0.6-0.2-1-0.3
		c-0.4-0.1-0.7-0.1-1-0.1c-1.9,0-2.9,1.2-2.9,3.7c0,1.2,0.2,2.1,0.7,2.7c0.5,0.6,1.2,0.9,2.1,0.9c0.8,0,1.6-0.1,2.4-0.5V64
		C262.7,64.3,261.9,64.5,261,64.5L261,64.5z M272,56H269v8.3h-1.4V56h-3.1v-1.2h7.6V56z M281.6,57.2c0,0.6-0.2,1.1-0.5,1.4
		c-0.4,0.3-0.8,0.5-1.5,0.6v0.1c0.8,0.1,1.4,0.3,1.8,0.7c0.4,0.4,0.6,0.9,0.6,1.5c0,0.9-0.3,1.5-1,2c-0.6,0.5-1.6,0.7-2.8,0.7h-4.2
		v-9.5h4.2C280.5,54.8,281.6,55.6,281.6,57.2L281.6,57.2z M280.5,61.5c0-0.5-0.2-0.9-0.6-1.1c-0.4-0.3-1-0.4-1.9-0.4h-2.6v3.1h2.6
		C279.7,63.1,280.5,62.6,280.5,61.5L280.5,61.5z M280.2,57.3c0-0.5-0.2-0.8-0.5-1c-0.4-0.2-0.9-0.3-1.6-0.3h-2.7v2.7h2.4
		c0.9,0,1.5-0.1,1.9-0.3C280.1,58.2,280.2,57.8,280.2,57.3L280.2,57.3z M292.3,59.5c0,1.5-0.4,2.8-1.2,3.6c-0.8,0.9-1.8,1.3-3.2,1.3
		c-0.8,0-1.6-0.2-2.3-0.6c-0.6-0.4-1.2-1-1.5-1.7c-0.4-0.8-0.5-1.6-0.5-2.6c0-1.5,0.4-2.8,1.2-3.6c0.8-0.9,1.9-1.3,3.2-1.3
		c1.3,0,2.4,0.4,3.2,1.3C291.9,56.8,292.3,58,292.3,59.5L292.3,59.5z M285,59.5c0,1.2,0.3,2.2,0.8,2.8c0.5,0.6,1.2,1,2.1,1
		c0.9,0,1.7-0.3,2.2-1c0.5-0.6,0.7-1.5,0.7-2.8c0-1.2-0.2-2.1-0.7-2.8c-0.5-0.6-1.2-0.9-2.2-0.9c-0.9,0-1.7,0.3-2.2,0.9
		C285.2,57.4,285,58.3,285,59.5L285,59.5z"/>
</g>
</svg>
